<svg width="32" height="32" viewBox="0 0 32 32" fill="none" xmlns="http://www.w3.org/2000/svg">
<g clip-path="url(#clip0_121_7)">
<path d="M28.144 10.746C28.2707 11.506 28.3593 12.3293 28.41 13.216C28.486 14.1027 28.486 15.1793 28.41 16.446C28.334 17.6873 28.1567 19.22 27.878 21.044C27.498 23.5013 26.4973 25.566 24.876 27.238C23.2547 28.8847 21.2153 29.9613 18.758 30.468C18.074 30.62 17.276 30.734 16.364 30.81C15.452 30.8607 14.54 30.9113 13.628 30.962C12.7414 30.9873 11.9434 31.0253 11.234 31.076C10.6007 31.2027 9.84071 31.2913 8.95404 31.342C8.06737 31.3927 7.23137 31.38 6.44604 31.304C5.66071 31.228 5.09071 31.0887 4.73604 30.886C4.93871 30.5313 5.10337 29.9993 5.23004 29.29C5.35671 28.5553 5.45804 27.7573 5.53404 26.896C5.61004 26.0347 5.63537 25.2113 5.61004 24.426L5.49604 11.544C5.49604 10.5053 5.48337 9.55534 5.45804 8.69401C5.45804 7.83268 5.43271 7.16134 5.38204 6.68001C5.33137 6.14801 5.12871 5.67934 4.77404 5.27401C4.44471 4.86868 4.20404 4.46334 4.05204 4.05801C3.64671 2.94334 3.46937 1.85401 3.52004 0.790009C3.64671 0.815342 3.92537 0.853342 4.35604 0.904008C4.81204 0.929342 5.33137 0.967343 5.91404 1.01801C6.54737 1.04334 7.53537 1.08134 8.87804 1.13201C10.246 1.18268 11.6394 1.23334 13.058 1.28401C13.058 1.28401 13.2607 1.29667 13.666 1.32201C14.0967 1.32201 14.6287 1.34734 15.262 1.39801C15.8953 1.44868 16.554 1.52468 17.238 1.62601C17.922 1.70201 18.5173 1.80334 19.024 1.93001C20.6707 2.36068 22.0513 2.95601 23.166 3.71601C24.306 4.45068 25.218 5.24868 25.902 6.11001C26.6113 6.97134 27.1433 7.82001 27.498 8.65601C27.8527 9.46668 28.068 10.1633 28.144 10.746ZM14.882 23.78C15.9207 23.5267 16.896 23.0327 17.808 22.298C18.7453 21.538 19.48 20.5247 20.012 19.258C20.5693 17.966 20.772 16.3953 20.62 14.546C20.4427 12.1393 19.8093 10.4673 18.72 9.53001C17.656 8.59268 16.2627 8.11134 14.54 8.08601C14.0587 8.06068 13.6787 8.37734 13.4 9.03601C13.1213 9.69468 12.9314 10.7587 12.83 12.228C12.7794 13.1907 12.7414 13.9127 12.716 14.394C12.6907 14.85 12.678 15.23 12.678 15.534C12.7034 15.838 12.7034 16.2307 12.678 16.712C12.678 16.712 12.678 16.94 12.678 17.396C12.7034 17.852 12.7414 18.422 12.792 19.106C12.8427 19.7647 12.906 20.4487 12.982 21.158C13.058 21.842 13.1467 22.4247 13.248 22.906C13.3747 23.438 13.6153 23.742 13.97 23.818C14.3247 23.8687 14.6287 23.856 14.882 23.78Z" fill="#565759"/>
</g>
<defs>
<clipPath id="clip0_121_7">
<rect width="26" height="32" fill="white" transform="translate(3)"/>
</clipPath>
</defs>
</svg>
