<svg width="78" height="78" viewBox="0 0 78 78" fill="none" xmlns="http://www.w3.org/2000/svg">
<path d="M60.7981 73.2711H54.4872V71.1098C54.4872 68.5002 52.3719 66.3855 49.7629 66.3855H48.3376C48.5906 65.8568 48.7398 65.2821 48.7398 64.6612C48.7398 62.7068 47.349 61.0863 45.5094 60.7185L48.1302 46.3142C48.6244 43.5898 47.8888 40.8082 46.1185 38.6929C45.2564 37.6583 44.1874 36.8306 43.0036 36.2675V31.1404C43.3486 30.9107 43.7164 30.761 44.3023 30.761C45.1988 30.761 45.601 31.106 46.2107 31.6347C46.9463 32.2671 47.8661 33.06 49.6246 33.06C51.3832 33.06 52.2914 32.2667 53.0269 31.6347C53.625 31.0827 54.0272 30.7377 54.9237 30.7377C55.8202 30.7377 56.2224 31.0827 56.832 31.6114C57.5677 32.2438 58.4758 33.0367 60.2344 33.0367C60.8668 33.0367 61.3838 32.5196 61.3838 31.8872C61.3838 31.784 61.3494 31.6919 61.3261 31.5998C61.3261 31.5771 61.3378 31.5538 61.3378 31.5422L52.9464 5.33349C52.314 3.33353 50.475 2 48.394 2H29.5419C27.45 2 25.6219 3.33364 24.9895 5.32198L16.5981 31.5306C16.5865 31.5767 16.5865 31.6227 16.5865 31.6688C16.5749 31.7376 16.5405 31.8069 16.5405 31.8757C16.5405 32.5081 17.0464 33.0135 17.6783 33.0251H17.6899C19.4484 33.0251 20.3567 32.2318 21.0922 31.5999C21.713 31.0828 22.1157 30.7378 23.0239 30.7378C23.9204 30.7378 24.3226 31.0828 24.9323 31.6115C25.6679 32.244 26.5877 33.0368 28.3462 33.0368C30.1048 33.0368 31.013 32.2435 31.7486 31.6115C32.3577 31.0828 32.7604 30.7378 33.6686 30.7378C34.2433 30.7378 34.6111 30.887 34.9445 31.1056V36.2438C33.7607 36.8069 32.6916 37.6347 31.8296 38.6692C30.0594 40.7955 29.3237 43.5776 29.818 46.2905L32.4387 60.6948C30.5997 61.0626 29.2083 62.6947 29.2083 64.6375C29.2083 65.2583 29.3576 65.833 29.6105 66.3618H28.1853C25.5757 66.3618 23.4609 68.477 23.4609 71.0861L23.4604 73.2712H17.1495C16.517 73.2712 16 73.7883 16 74.4207C16 75.0531 16.517 75.5702 17.1495 75.5702H60.808C61.4404 75.5702 61.9575 75.0531 61.9575 74.4207C61.9575 73.7883 61.4288 73.2712 60.7969 73.2712L60.7981 73.2711ZM30.2541 29.8768C29.645 30.3944 29.2428 30.7389 28.3463 30.7389C27.4381 30.7389 27.0359 30.3938 26.4268 29.8652C25.6906 29.2333 24.7825 28.4399 23.0239 28.4399C21.2654 28.4399 20.3455 29.2332 19.61 29.8652C19.5872 29.8879 19.5639 29.9112 19.5295 29.934L27.1852 6.0244C27.507 5.00141 28.4612 4.30014 29.5419 4.30014H48.394C49.4747 4.30014 50.4289 4.98971 50.7622 6.0244L58.4179 29.934C58.3952 29.9112 58.3719 29.8996 58.3375 29.8763C57.6013 29.2333 56.6815 28.4399 54.923 28.4399C53.1644 28.4399 52.2562 29.2332 51.5206 29.8652C50.911 30.3944 50.5088 30.7389 49.6123 30.7389C48.7041 30.7389 48.3019 30.3938 47.6928 29.8652C46.9566 29.2333 46.0485 28.4399 44.2899 28.4399C42.7727 28.4399 41.8646 29.0379 41.0945 29.6815L40.8759 29.8767C40.2663 30.3943 39.8757 30.7388 38.9792 30.7388C38.0711 30.7388 37.6805 30.3938 37.0708 29.8651L36.8411 29.6698C36.0822 29.0263 35.1857 28.4399 33.6685 28.4399C31.9094 28.4399 30.9896 29.2332 30.254 29.8767L30.2541 29.8768ZM37.2435 32.7161C37.7151 32.9113 38.2782 33.0378 38.9793 33.0378C39.6689 33.0378 40.2209 32.9113 40.6919 32.7277V35.5098C40.1288 35.4061 39.5541 35.3373 38.9677 35.3373C38.3812 35.3373 37.8066 35.4061 37.2434 35.5098L37.2435 32.7161ZM33.5877 40.1537C34.9214 38.5559 36.887 37.6362 38.9678 37.6362C41.0486 37.6362 43.0142 38.556 44.3479 40.1537C45.6815 41.7514 46.2329 43.8439 45.8651 45.9015L43.1866 60.6269H34.7605L32.0705 45.9015C31.7027 43.8439 32.2547 41.7519 33.5877 40.1542V40.1537ZM31.4958 64.6498C31.4958 63.6957 32.2658 62.9256 33.22 62.9256H44.7158C45.67 62.9256 46.4401 63.6956 46.4401 64.6498C46.4401 65.604 45.6695 66.3741 44.7158 66.3741H33.22C32.2664 66.3741 31.4958 65.6041 31.4958 64.6498ZM25.7484 71.0984C25.7484 69.7648 26.8408 68.6731 28.1738 68.6731H49.7612C51.0949 68.6731 52.1866 69.7654 52.1866 71.0984V73.2714H25.7476L25.7484 71.0984Z" fill="#757575"/>
</svg>
