<svg width="78" height="78" viewBox="0 0 78 78" fill="none" xmlns="http://www.w3.org/2000/svg">
<path d="M66.4731 25.6287V17.0085C66.4692 13.8252 65.203 10.7726 62.9514 8.52167C60.7005 6.27012 57.6479 5.00392 54.4646 5H23.5857C20.4024 5.00383 17.3498 6.27002 15.0989 8.52167C12.8473 10.7726 11.5811 13.8252 11.5772 17.0085V25.6287C9.08059 25.8559 6.77725 27.0673 5.1753 28.9952C3.57404 30.9239 2.80629 33.4109 3.04172 35.9064C3.27721 38.4023 4.49618 40.7013 6.43055 42.296V58.1804C6.43311 59.8473 6.92133 61.4774 7.83525 62.8712C8.74917 64.2657 10.0499 65.3634 11.577 66.0303V70.1888C11.5783 71.0983 11.9401 71.9706 12.5835 72.6134C13.2261 73.2567 14.0985 73.6186 15.008 73.6198H18.439C19.3484 73.6186 20.2208 73.2567 20.8636 72.6134C21.5069 71.9707 21.8687 71.0983 21.87 70.1888V66.7578H56.1799V70.1888C56.1812 71.0983 56.5431 71.9706 57.1864 72.6134C57.8291 73.2567 58.7015 73.6186 59.611 73.6198H63.042C63.9514 73.6186 64.8238 73.2567 65.4665 72.6134C66.1098 71.9707 66.4717 71.0983 66.473 70.1888V66.0303C68.0002 65.3634 69.3009 64.2656 70.2147 62.8712C71.1286 61.4773 71.6169 59.8473 71.6194 58.1804V42.296C73.5538 40.7011 74.7728 38.4023 75.0083 35.9064C75.2438 33.4111 74.476 30.9239 72.8747 28.9952C71.2728 27.0672 68.9696 25.8558 66.4728 25.6287H66.4731ZM23.5857 8.43132H54.4646C56.7385 8.43387 58.9187 9.33885 60.5268 10.9466C62.1345 12.5548 63.0395 14.735 63.0421 17.0088V25.9519C61.0681 26.5135 59.3309 27.7025 58.0928 29.3388C56.8553 30.9752 56.1832 32.9703 56.1801 35.022V45.8433C50.5059 44.9403 44.7709 44.4763 39.0251 44.4565C33.2794 44.4763 27.5444 44.9403 21.8702 45.8433V35.022C21.867 32.9701 21.195 30.975 19.9575 29.3388C18.7194 27.7024 16.9822 26.5135 15.0082 25.9519V17.0088C15.0107 14.7349 15.9157 12.5547 17.5234 10.9466C19.1317 9.33893 21.3119 8.43393 23.5857 8.43132ZM18.4392 70.1891H15.0082V66.7582H18.4392V70.1891ZM63.0421 70.1891H59.6111V66.7582H63.0421V70.1891ZM68.9486 40.0128C68.4738 40.3312 68.1885 40.8654 68.1885 41.4373V58.1805C68.1872 59.545 67.6441 60.8532 66.6798 61.8183C65.7148 62.7826 64.4065 63.3258 63.042 63.327H15.0081C13.6436 63.3258 12.3353 62.7826 11.3703 61.8183C10.4059 60.8534 9.8628 59.545 9.86153 58.1805V41.4373C9.86153 40.8654 9.57625 40.3312 9.10144 40.0128C7.3464 38.841 6.3354 36.8339 6.43882 34.7259C6.54157 32.6187 7.74396 30.7198 9.60497 29.725C11.466 28.7301 13.7132 28.7856 15.5225 29.8712C17.3324 30.9561 18.4396 32.9115 18.4391 35.0221V47.8876C18.4398 48.4014 18.6702 48.8877 19.0678 49.2138C19.4654 49.5393 19.9874 49.6695 20.4916 49.5693C26.6087 48.471 32.8102 47.9081 39.0255 47.8876C45.2403 47.9081 51.4417 48.471 57.5594 49.5693C58.0635 49.6695 58.5856 49.5393 58.9832 49.2138C59.3808 48.8877 59.6112 48.4014 59.6118 47.8876V35.0221C59.6106 32.9109 60.7178 30.9547 62.5278 29.8686C64.3378 28.783 66.5856 28.7274 68.4471 29.7224C70.3087 30.7174 71.5112 32.6167 71.6139 34.7253C71.7173 36.8332 70.7051 38.841 68.9494 40.0128H68.9486Z" fill="#757575"/>
</svg>
