<svg width="78" height="78" viewBox="0 0 78 78" fill="none" xmlns="http://www.w3.org/2000/svg">
<path d="M18.1053 6.00697C18.0587 6.01422 18.0121 6.02044 17.9665 6.02977H14.5605H14.4217C13.6429 6.06241 12.9652 6.80442 13.0014 7.5843C13.0377 8.36362 13.7823 9.03881 14.5606 8.99888H16.7846V69.8614C16.7721 70.6465 17.4831 71.3693 18.2676 71.3693C19.0516 71.3693 19.7626 70.6464 19.7506 69.8614V68.3769H58.3041V69.8614C58.2927 70.6454 59.0036 71.3668 59.7871 71.3668C60.5706 71.3668 61.281 70.6455 61.2701 69.8614V8.99888H63.4947C64.2787 9.0108 65 8.29936 65 7.51439C65 6.72988 64.2787 6.0185 63.4947 6.0299H60.0654C59.9208 6.00037 59.7721 5.9926 59.625 6.0071C59.5783 6.01436 59.5317 6.02058 59.4861 6.0299H18.5463C18.4017 6.00037 18.253 5.9926 18.1058 6.0071L18.1053 6.00697ZM19.7505 8.9989H58.3039V11.968H19.7505V8.9989ZM19.7505 14.9366H58.3039V29.7815H19.7505V14.9366ZM19.7505 32.7502H58.3039V47.5951H19.7505V32.7502ZM36.6634 35.7193C35.8846 35.7519 35.2069 36.4939 35.2431 37.2738C35.2794 38.0531 36.024 38.7283 36.8023 38.6884H41.2507C42.0347 38.7003 42.756 37.9889 42.756 37.2039C42.756 36.4194 42.0347 35.708 41.2507 35.7194H36.8023H36.6634L36.6634 35.7193ZM19.7505 50.5642H58.3039V65.409H19.7505V50.5642ZM36.6634 53.5333C35.8882 53.5711 35.2172 54.311 35.2534 55.0873C35.2897 55.8635 36.027 56.5371 36.8023 56.5024H41.2507C42.0336 56.5127 42.7528 55.8018 42.7528 55.0179C42.7528 54.234 42.0331 53.5229 41.2507 53.5334H36.8023H36.6634L36.6634 53.5333Z" fill="#757575"/>
</svg>
