<svg width="78" height="78" viewBox="0 0 78 78" fill="none" xmlns="http://www.w3.org/2000/svg">
<path d="M71.9987 46.3673C71.9987 45.2731 71.5642 44.2244 70.7911 43.4508C70.0175 42.6772 68.9683 42.2427 67.8746 42.2427H36.6474V34.984C42.1739 32.3208 46.0745 26.0165 46.0745 18.6753C46.0745 8.92978 39.2042 1 30.756 1C22.3071 1 15.4375 8.93034 15.4375 18.6753C15.2867 24.9721 18.4077 30.8984 23.6857 34.3354V42.2424H10.1346C8.87549 42.2359 7.68257 42.8061 6.89748 43.7906C6.11249 44.7747 5.82116 46.0648 6.10814 47.2908C6.39458 48.5169 7.22678 49.5445 8.36716 50.0787V72.8801C8.36716 74.143 9.04095 75.3099 10.1347 75.9414C11.2284 76.5729 12.5759 76.5729 13.6696 75.9414C14.7638 75.3099 15.4376 74.143 15.4376 72.8801V50.4912H46.0759V72.8801C46.0759 73.8175 46.4481 74.7165 47.111 75.3794C47.7739 76.0423 48.6734 76.415 49.6108 76.415H66.1084C67.0459 76.415 67.9448 76.0423 68.6083 75.3794C69.2712 74.7164 69.6433 73.8175 69.6433 72.8801V50.0787C70.3464 49.7451 70.9405 49.2199 71.3577 48.563C71.7749 47.906 71.9973 47.1449 72 46.367L71.9987 46.3673ZM17.7938 18.676C17.7938 10.2271 23.6029 3.35752 30.7557 3.35752C37.9086 3.35752 43.7177 10.2278 43.7177 18.676C43.7177 27.1249 37.9086 33.9945 30.7557 33.9945C23.6029 33.9945 17.7938 27.1242 17.7938 18.676ZM26.0426 35.4916C27.5491 36.0591 29.1457 36.3504 30.7559 36.352C31.9516 36.3493 33.1407 36.1827 34.2914 35.8567V42.2435H26.0426V35.4916ZM13.08 72.8823C13.08 73.5328 12.5527 74.0606 11.9017 74.0606C11.2513 74.0606 10.7234 73.5328 10.7234 72.8823V50.4934H13.0801L13.08 72.8823ZM56.6801 50.4934V51.6718C56.6801 52.3228 57.2074 52.8501 57.8584 52.8501C58.5094 52.8501 59.0367 52.3228 59.0367 51.6718V50.4934H67.2855V55.4427H58.5301C58.1379 55.1275 57.5791 55.1275 57.1869 55.4427H48.4314V50.4934H56.6801ZM48.4313 62.2771V57.7994H56.6801V58.7422C56.6801 59.3932 57.2074 59.9206 57.8584 59.9206C58.5094 59.9206 59.0367 59.3932 59.0367 58.7422V57.7994H67.2855V62.2771H48.4313ZM66.1066 74.0614H49.609C48.958 74.0614 48.4307 73.5336 48.4307 72.8831V64.6343H56.6795V65.8126C56.6795 66.4631 57.2068 66.9909 57.8578 66.9909C58.5088 66.9909 59.0361 66.4631 59.0361 65.8126V64.6343H67.2849V72.8831C67.2849 73.1956 67.1607 73.495 66.9399 73.7158C66.7185 73.9372 66.4191 74.0614 66.1066 74.0614ZM67.8741 48.1367H10.1333C9.15734 48.1367 8.36576 47.3451 8.36576 46.3691C8.36576 45.3926 9.15727 44.6016 10.1333 44.6016H67.8741C68.8501 44.6016 69.6416 45.3926 69.6416 46.3691C69.6416 47.3451 68.8501 48.1367 67.8741 48.1367Z" fill="#4F4E4E"/>
<path d="M40.1826 54.0266H21.3283C20.3908 54.0266 19.4913 54.3988 18.8284 55.0617C18.1655 55.7246 17.7933 56.6241 17.7933 57.5615V75.2368C17.7933 75.5493 17.9176 75.8488 18.1384 76.0701C18.3592 76.2909 18.6592 76.4151 18.9716 76.4151H42.5396C42.8521 76.4151 43.1521 76.2909 43.3729 76.0701C43.5942 75.8488 43.7179 75.5493 43.7179 75.2368V57.5615C43.7179 56.6241 43.3458 55.7246 42.6828 55.0617C42.0199 54.3988 41.1204 54.0266 40.183 54.0266H40.1826ZM21.3283 56.3833H40.1826C40.4951 56.3833 40.7951 56.5075 41.0159 56.7283C41.2367 56.9491 41.3609 57.2491 41.3609 57.5616V58.7399H20.1498V57.5616C20.1498 56.9106 20.6776 56.3833 21.3281 56.3833H21.3283ZM20.1499 74.0585V61.096H41.3611V74.0585H20.1499Z" fill="#4F4E4E"/>
</svg>
