<svg width="78" height="78" viewBox="0 0 78 78" fill="none" xmlns="http://www.w3.org/2000/svg">
<path d="M64.8786 45.3791H13.8441C13.1395 45.3791 12.5682 44.8078 12.5682 44.1033V36.4481C12.5682 35.7435 13.1395 35.1722 13.8441 35.1722H64.8786C65.2169 35.1722 65.5416 35.3067 65.7808 35.5459C66.02 35.7851 66.1545 36.1098 66.1545 36.4481V44.1033C66.1545 44.4416 66.02 44.7663 65.7808 45.0055C65.5416 45.2447 65.2169 45.3791 64.8786 45.3791ZM15.12 42.8274H63.6027V37.724H15.12V42.8274Z" fill="#757575"/>
<path d="M18.9475 75.9998H11.2924C10.9153 76.005 10.5559 75.8426 10.3098 75.5573C10.0632 75.2719 9.95611 74.892 10.0165 74.52L15.1199 43.8993C15.2208 43.2751 15.7636 42.8194 16.3958 42.8274H24.051C24.428 42.8223 24.7875 42.9846 25.0335 43.27C25.2801 43.5553 25.3872 43.9352 25.3268 44.3072L20.2234 74.9279C20.1226 75.5521 19.5798 76.0078 18.9475 75.9998ZM12.7977 73.4481H17.9012L22.5837 45.3791H17.4802L12.7977 73.4481Z" fill="#757575"/>
<path d="M31.7062 37.7239H26.6028C25.8982 37.7239 25.3269 37.1527 25.3269 36.4481V16.0343C25.3269 15.3297 25.8982 14.7584 26.6028 14.7584H31.7062C32.0445 14.7584 32.3692 14.8928 32.6084 15.1321C32.8477 15.3713 32.9821 15.696 32.9821 16.0343V36.4481C32.9821 36.7864 32.8477 37.1111 32.6084 37.3503C32.3692 37.5895 32.0445 37.7239 31.7062 37.7239ZM27.8786 35.1722H30.4304V17.3101H27.8786V35.1722Z" fill="#757575"/>
<path d="M52.1199 37.7239H47.0165C46.3119 37.7239 45.7406 37.1527 45.7406 36.4481V16.0343C45.7406 15.3297 46.3119 14.7584 47.0165 14.7584H52.1199C52.4582 14.7584 52.7829 14.8928 53.0221 15.1321C53.2614 15.3713 53.3958 15.696 53.3958 16.0343V36.4481C53.3958 36.7864 53.2614 37.1111 53.0221 37.3503C52.7829 37.5895 52.4582 37.7239 52.1199 37.7239ZM48.2923 35.1722H50.8441V17.3101H48.2923V35.1722Z" fill="#757575"/>
<path d="M67.4304 75.9998H59.7752C59.143 76.0078 58.6002 75.5521 58.4993 74.9279L53.3959 44.3072C53.3355 43.9352 53.4426 43.5553 53.6892 43.27C53.9353 42.9846 54.2947 42.8223 54.6718 42.8274H62.3269C62.9592 42.8194 63.502 43.2751 63.6028 43.8993L68.7062 74.52C68.7666 74.892 68.6595 75.2719 68.4129 75.5573C68.1668 75.8426 67.8074 76.0049 67.4304 75.9998ZM60.8598 73.4481H65.9632L61.2425 45.3791H56.1391L60.8598 73.4481Z" fill="#757575"/>
<path d="M57.2234 17.3102H21.4993C20.4843 17.3102 19.5102 16.9069 18.7927 16.1893C18.0751 15.4716 17.6718 14.4975 17.6718 13.4827V5.82751C17.6718 4.81253 18.075 3.83848 18.7927 3.12094C19.5104 2.40339 20.4844 2 21.4993 2H57.2234C58.2384 2 59.2125 2.40326 59.93 3.12094C60.6475 3.83861 61.0509 4.81266 61.0509 5.82751V13.4827C61.0509 14.4977 60.6477 15.4717 59.93 16.1893C59.2123 16.9068 58.2383 17.3102 57.2234 17.3102ZM21.4993 4.55158C20.7947 4.55158 20.2234 5.12287 20.2234 5.82744V13.4826C20.2234 13.8209 20.3578 14.1456 20.597 14.3848C20.8363 14.6241 21.1609 14.7585 21.4993 14.7585H57.2234C57.5617 14.7585 57.8864 14.6241 58.1256 14.3848C58.3649 14.1456 58.4993 13.8209 58.4993 13.4826V5.82744C58.4993 5.48911 58.3649 5.16445 58.1256 4.92522C57.8864 4.686 57.5617 4.55158 57.2234 4.55158H21.4993Z" fill="#757575"/>
</svg>
