<svg width="78" height="78" viewBox="0 0 78 78" fill="none" xmlns="http://www.w3.org/2000/svg">
<path d="M71.1325 36.2014V23.8516C71.1289 20.7092 69.9135 17.6969 67.7521 15.475C65.5906 13.253 62.6602 12.0037 59.6034 12H19.3471C16.2913 12.0053 13.3629 13.2563 11.203 15.4777C9.04313 17.6996 7.82829 20.7109 7.82524 23.8516V36.2296C6.38823 36.9109 5.17087 37.9995 4.31582 39.3686C3.46088 40.7372 3.00415 42.3284 3 43.9551V57.9667C3.00104 58.9595 3.38579 59.9117 4.06881 60.614C4.75235 61.3155 5.67883 61.7105 6.6451 61.7111H10.8769V64.0922C10.8769 65.1456 11.7075 66 12.7323 66C13.7576 66 14.5882 65.1456 14.5882 64.0922V61.7111H64.4144V64.0922C64.4144 65.1456 65.245 66 66.2704 66C67.2952 66 68.1263 65.1456 68.1263 64.0922V61.7111H72.3581C73.3238 61.7095 74.2493 61.3145 74.9317 60.6129C75.6147 59.9108 75.999 58.9595 76 57.9667V43.9551C75.9964 42.3193 75.536 40.7186 74.6728 39.3441C73.81 37.9697 72.5809 36.8789 71.1325 36.2014ZM11.5375 23.8516C11.5396 21.7223 12.3629 19.6809 13.8269 18.1744C15.2908 16.6679 17.2763 15.82 19.3476 15.8157H59.6039C61.6763 15.8178 63.6637 16.6652 65.1293 18.1717C66.5948 19.6782 67.4191 21.7212 67.4212 23.8516V35.4077L61.4645 35.4082V30.0659C61.4634 28.3087 60.784 26.6239 59.5754 25.381C58.3668 24.138 56.7279 23.4391 55.0185 23.4369H47.7409C46.031 23.439 44.392 24.1379 43.1828 25.381C41.9742 26.6234 41.2943 28.3087 41.2922 30.0659V35.4077L37.6865 35.4082V30.0659C37.6844 28.3086 37.0045 26.6234 35.7959 25.3809C34.5867 24.138 32.9478 23.439 31.2379 23.4369H23.9576C22.2508 23.4427 20.6155 24.1438 19.4094 25.3863C18.2039 26.6287 17.5255 28.3114 17.5239 30.0659V35.4077L11.5378 35.4082L11.5375 23.8516ZM57.7606 35.4077L45.0042 35.4082V30.0659C45.0047 29.3201 45.2931 28.6046 45.8063 28.0777C46.3195 27.5501 47.0154 27.2531 47.741 27.2526H55.0186C55.7441 27.2531 56.4395 27.5501 56.9522 28.0777C57.4648 28.6052 57.7528 29.3201 57.7528 30.0659L57.7606 35.4077ZM33.9822 35.4077L21.2233 35.4082V30.0659C21.2238 29.3228 21.5102 28.61 22.0202 28.083C22.5303 27.556 23.2221 27.2574 23.9451 27.2526H31.2254C31.9508 27.2531 32.6469 27.5501 33.16 28.0777C33.6732 28.6047 33.9616 29.3201 33.9621 30.0659L33.9822 35.4077ZM66.3005 57.9024H66.2389L13.0362 57.9583C12.9378 57.9285 12.8363 57.9072 12.7338 57.8949C12.6302 57.9072 12.5271 57.9285 12.4272 57.9583H6.71334V43.9548C6.71437 42.7001 7.19959 41.4977 8.06286 40.6108C8.92557 39.7234 10.0954 39.2246 11.3159 39.2235H67.6869C68.9075 39.2246 70.0772 39.7234 70.94 40.6108C71.8032 41.4976 72.2884 42.7001 72.2895 43.9548L72.3589 57.8942L66.3005 57.9024Z" fill="#757575"/>
</svg>
