<svg width="42" height="42" viewBox="0 0 42 42" fill="none" xmlns="http://www.w3.org/2000/svg">
<g id="arrow-right">
<path id="Vector" d="M31.8938 20.8918C31.8719 20.6884 31.7819 20.4985 31.6384 20.3524L12.5665 1.28218C12.3982 1.10565 12.1662 1.00391 11.9222 1.00011C11.6782 0.996306 11.443 1.09107 11.2696 1.26252C11.0963 1.43398 10.999 1.66819 10.9999 1.9119C11.0009 2.15593 11.1001 2.38919 11.275 2.55938L29.7092 20.9911L11.275 39.4228L11.275 39.4232C11.1001 39.593 11.0009 39.8263 10.9999 40.0703C10.999 40.3143 11.0963 40.5482 11.2696 40.7197C11.443 40.8915 11.6782 40.9859 11.9222 40.9821C12.1662 40.9783 12.3982 40.8769 12.5665 40.7L31.6392 21.6298C31.8309 21.4349 31.9247 21.1639 31.8946 20.892L31.8938 20.8918Z" fill="#797979"/>
</g>
</svg>
